<?xml version="1.0" encoding="UTF-8"?>
<svg id="Camada_2" data-name="Camada 2" xmlns="http://www.w3.org/2000/svg" viewBox="0 0 83.488 97.938">
  <defs>
    <style>
      .cls-1 {
        fill: #E24B2F;
      }
    </style>
  </defs>
  <g id="Camada_1-2" data-name="Camada 1">
    <path class="cls-1" d="M77.489,73.101c-1.673,11.842-12.732,20.145-23.724,23.154C1.772,110.488-21.477,30.513,25.13,5.668c21.73-11.583,45.33-4.926,58.357,15.522-.183,2.357-17.679,2.639-21.177,7.676-1.126,1.622-1.343,30.244-.783,32.348,1.728,6.486,10.18,9.338,15.961,11.887ZM26.716,51.176c3.136,2.816,15.898,7.043,20.213,6.083,12.041-2.679,3.154-16.858,3.214-24.11.063-7.646,3.686-14.435,6.245-21.317,1.666-4.482-11.78-6.975-13.963-4.354-2.257,2.709-3.677,12.341-6.752,17.07-4.125,6.343-19.016,17.592-8.956,26.627ZM25.144,55.125c-.653-5.668-5.828-8.571-2.768-14.941l-3.165-1.729c-3.666,6.438-2.884,16.025,5.933,16.669ZM52.541,57.514c-3.504,2.338-7.113,2.866-11.326,2.417-8.203-.874-20.701-12.869-11.889,9.491,1.083,2.748,9.264,21.358,10.367,21.853l11.523-.548c-2.784-11.871,1.11-21.674,1.324-33.211Z"/>
  </g>
</svg>