<?xml version="1.0" encoding="UTF-8"?>
<svg id="Camada_2" data-name="Camada 2" xmlns="http://www.w3.org/2000/svg" viewBox="0 0 455.191 97.938">
  <defs>
    <style>
      .cls-1 {
        fill: #d44226;
      }

      .cls-2 {
        fill: #bcbbba;
      }
    </style>
  </defs>
  <g id="Camada_1-2" data-name="Camada 1">
    <g>
      <path class="cls-1" d="M294.197,73.101c-1.673,11.842-12.732,20.145-23.724,23.154-51.993,14.233-75.242-65.742-28.635-90.587,21.73-11.583,45.33-4.926,58.357,15.522-.183,2.357-20.859,8.676-24.357,13.713-1.126,1.622-4.312,21.747-3.752,23.85,1.728,6.486,16.329,11.799,22.11,14.348ZM243.424,51.176c3.136,2.816,15.898,7.043,20.213,6.083,12.041-2.679,3.154-16.858,3.214-24.11.063-7.646,3.686-14.435,6.245-21.317,1.666-4.482-11.78-6.975-13.963-4.354-2.257,2.709-3.677,12.341-6.752,17.07-4.125,6.343-19.016,17.592-8.956,26.627ZM241.853,55.125c-.653-5.668-5.828-8.571-2.768-14.941l-3.165-1.729c-3.666,6.438-2.884,16.025,5.933,16.669ZM269.249,57.514c-3.504,2.338-7.113,2.866-11.326,2.417-8.203-.874-20.701-12.869-11.889,9.491,1.083,2.748,9.264,21.358,10.367,21.853l11.523-.548c-2.784-11.871,1.11-21.674,1.324-33.211Z"/>
      <polygon class="cls-2" points="0 6.284 14.131 6.449 35.743 61.088 35.743 6.284 48.848 6.284 48.848 90.873 34.751 90.668 13.106 38.452 13.106 90.873 0 90.873 0 6.284"/>
      <path class="cls-1" d="M374.107,90.873l-13.556,1.108-1.925-2.905,1.196-82.803c17.778.66,42.605-4.906,45.243,19.688,1.291,12.037.607,24.332-10.605,31.077l11.834,33.222-14.362.063c-3.151-4.465-8.401-30.519-12.413-31.149l-5.411.722v30.976ZM374.107,47.983c14.242-1.019,18.15-3.565,16.732-18.527-1.04-10.981-7.165-10.625-16.732-10.066v28.593Z"/>
      <path class="cls-2" d="M175.139,6.284v64.931c0,10.522,19.063,9.07,19.063,1.191V6.284h14.297v67.314c0,8.728-12.721,17.494-20.985,18.332-41.317,4.188-22.339-58.878-26.673-82.668.985-5.317,10.073-2.216,14.298-2.978Z"/>
      <path class="cls-1" d="M333.48,6.405l17.985,84.459-15.472-.003-3.507-18.534-16.205-.597-2.108,1.531-3.263,17.556-12.308,1.153-1.698-3.723,17.754-81.838,18.822-.006ZM330.02,58.697l-7.13-33.343-5.966,33.344,13.096-.002Z"/>
      <path class="cls-2" d="M94.111,6.296l16.694,84.571-14.289-.003-3.503-18.539-18.032.002-3.507,18.534-14.281.003L74.416,7.428l19.694-1.132ZM84.583,24.15c-1.606-1.959-2.156.169-2.363,1.785-1.409,11.008-3.227,21.812-4.782,32.77l13.105-.006-5.96-34.549Z"/>
      <polygon class="cls-1" points="455.124 6.284 455.191 18.83 440.827 19.389 440.827 90.873 426.53 90.873 426.53 19.389 412.157 18.869 411.041 6.284 455.124 6.284"/>
      <path class="cls-2" d="M153.694,6.284l.006,13.112-15.501-.013.013,71.478-14.304.012V19.985c-5.293,0-9.101-.591-14.296-.591l-.002-13.11h44.083Z"/>
    </g>
  </g>
</svg>

